<svg width="73" height="29" viewBox="0 0 73 29" fill="none" xmlns="http://www.w3.org/2000/svg">
<rect width="73" height="29" rx="14.5" fill="#F6F6F6"/>
<path d="M36.5001 13.375L32.8751 10.125V4.16667H40.1251V10.125L36.5001 13.375ZM41.9376 18.25L38.3126 15L41.9376 11.75H48.5834V18.25H41.9376ZM24.4167 18.25V11.75H31.0626L34.6876 15L31.0626 18.25H24.4167ZM32.8751 25.8333V19.875L36.5001 16.625L40.1251 19.875V25.8333H32.8751ZM36.5001 10.2875L37.7084 9.20417V6.33334H35.2917V9.20417L36.5001 10.2875ZM26.8334 16.0833H30.0355L31.2438 15L30.0355 13.9167H26.8334V16.0833ZM35.2917 23.6667H37.7084V20.7958L36.5001 19.7125L35.2917 20.7958V23.6667ZM42.9647 16.0833H46.1667V13.9167H42.9647L41.7563 15L42.9647 16.0833Z" fill="#FF98A8"/>
</svg>
