<svg width="72" height="67" viewBox="0 0 72 67" fill="none" xmlns="http://www.w3.org/2000/svg">
<path d="M12.5003 58.5783L9 55.3218L32.8253 33.1281L19.05 29.9407L33.6 21.4959L32.3753 5.58337L45.5003 15.8427L61.35 9.88742L54.9248 24.6595L66 36.85L48.8498 35.6866L39.8002 49.2262L36.375 36.4083L12.5003 58.5783ZM14.3498 21.1699L9 16.1917L14.4 11.1667L19.7497 16.1449L14.3498 21.1699ZM41.8252 37.4314L46.1753 30.848L54.5003 31.4293L49.1003 25.497L52.2248 18.3322L44.5252 21.2397L38.1503 16.2385L38.775 23.9616L31.7003 28.0793L39.8002 29.9407L41.8252 37.4314ZM54.6502 58.625L49.2998 53.6L54.6502 48.6218L60 53.6468L54.6502 58.625Z" fill="#9A6B7A"/>
</svg>
