<svg width="80" height="80" viewBox="0 0 80 80" fill="none" xmlns="http://www.w3.org/2000/svg">
<path d="M13.2224 63.3334C10.8702 63.3334 9.03688 62.5326 7.72244 60.9309C6.40744 59.3287 5.92577 57.222 6.27744 54.6109L10.1108 27.6667C10.5741 24.5929 11.9863 21.9909 14.3474 19.8609C16.7086 17.7315 19.4261 16.6667 22.4999 16.6667H57.5558C60.6297 16.6667 63.3472 17.7315 65.7083 19.8609C68.0694 21.9909 69.4813 24.5929 69.9441 27.6667L73.7224 54.6109C74.0741 57.222 73.5924 59.3287 72.2774 60.9309C70.963 62.5326 69.1297 63.3334 66.7774 63.3334C65.5369 63.3334 64.4536 63.1251 63.5274 62.7084C62.6019 62.2917 61.7963 61.7409 61.1108 61.0559L52.8333 52.7776H27.1666L18.8891 61.0559C18.2036 61.7409 17.398 62.2917 16.4724 62.7084C15.5463 63.1251 14.463 63.3334 13.2224 63.3334ZM14.6666 57.3893L24.8333 47.2226H55.1666L65.3333 57.3893C65.5555 57.6115 66.0369 57.8337 66.7774 58.0559C67.3147 58.0559 67.7269 57.829 68.0141 57.3751C68.3008 56.9212 68.3886 56.4259 68.2774 55.8893L64.3891 28.5001C64.1297 26.6667 63.3424 25.162 62.0274 23.9859C60.713 22.8104 59.2224 22.2226 57.5558 22.2226H22.4441C20.7774 22.2226 19.2869 22.8104 17.9724 23.9859C16.6574 25.162 15.8702 26.6667 15.6108 28.5001L11.7224 55.8893C11.6113 56.4259 11.6991 56.9212 11.9858 57.3751C12.273 57.829 12.6852 58.0559 13.2224 58.0559C13.5186 58.0559 13.9999 57.8337 14.6666 57.3893ZM57.7774 43.3334C58.6852 43.3334 59.4677 43.0048 60.1249 42.3476C60.7822 41.6898 61.1108 40.9073 61.1108 40.0001C61.1108 39.0929 60.7822 38.3104 60.1249 37.6526C59.4677 36.9954 58.6852 36.6667 57.7774 36.6667C56.8702 36.6667 56.088 36.9954 55.4308 37.6526C54.773 38.3104 54.4441 39.0929 54.4441 40.0001C54.4441 40.9073 54.773 41.6898 55.4308 42.3476C56.088 43.0048 56.8702 43.3334 57.7774 43.3334ZM50.8333 32.7776C51.7405 32.7776 52.523 32.449 53.1808 31.7917C53.838 31.1345 54.1666 30.352 54.1666 29.4443C54.1666 28.537 53.838 27.7548 53.1808 27.0976C52.523 26.4398 51.7405 26.1109 50.8333 26.1109C49.9261 26.1109 49.1436 26.4398 48.4858 27.0976C47.8286 27.7548 47.4999 28.537 47.4999 29.4443C47.4999 30.352 47.8286 31.1345 48.4858 31.7917C49.1436 32.449 49.9261 32.7776 50.8333 32.7776ZM25.2774 43.0559H29.7224V36.9443H35.8333V32.5001H29.7224V26.3892H25.2774V32.5001H19.1666V36.9443H25.2774V43.0559Z" fill="#9A6B7A"/>
</svg>
