<svg width="190" height="190" viewBox="0 0 190 190" fill="none" xmlns="http://www.w3.org/2000/svg">
<path d="M142.896 69.7993L135.771 76.1326C134.188 77.584 132.23 78.3757 129.899 78.5076C127.569 78.6396 125.48 78.0234 123.633 76.6591C121.785 75.2961 120.641 73.4931 120.201 71.25C119.761 69.007 119.85 66.8958 120.466 64.9167L123.763 53.9659L115.847 49.4792C113.912 48.3801 112.626 46.8185 111.987 44.7945C111.35 42.7718 111.361 40.6831 112.021 38.5284C112.681 36.3725 113.868 34.7337 115.583 33.6122C117.299 32.4907 119.322 31.9299 121.653 31.9299H130.758L133.528 23.4868C134.232 21.3308 135.408 19.4941 137.057 17.9768C138.707 16.4594 140.653 15.7007 142.896 15.7007C145.139 15.7007 147.085 16.4594 148.734 17.9768C150.384 19.4941 151.56 21.3308 152.263 23.4868L155.034 31.9299H164.138C166.294 31.9299 168.263 32.5131 170.044 33.6795C171.825 34.8446 173.068 36.4609 173.771 38.5284C174.519 40.5512 174.563 42.6181 173.903 44.7292C173.244 46.8403 171.924 48.4236 169.945 49.4792L161.896 53.9659L165.195 64.9167C165.898 66.9842 166.03 69.1283 165.591 71.349C165.15 73.5696 164.006 75.3396 162.159 76.6591C160.268 77.935 158.168 78.5287 155.859 78.4403C153.55 78.3532 151.604 77.584 150.021 76.1326L142.896 69.7993ZM142.896 56.6042C145.139 56.6042 147.019 55.8455 148.536 54.3281C150.054 52.8108 150.813 50.9306 150.813 48.6875C150.813 46.4445 150.054 44.5642 148.536 43.0469C147.019 41.5295 145.139 40.7708 142.896 40.7708C140.653 40.7708 138.773 41.5295 137.255 43.0469C135.738 44.5642 134.979 46.4445 134.979 48.6875C134.979 50.9306 135.738 52.8108 137.255 54.3281C138.773 55.8455 140.653 56.6042 142.896 56.6042ZM106.216 143.424C109.162 150.813 108.15 157.784 103.18 164.336C98.2109 170.89 91.5259 174.167 83.125 174.167C78.8593 174.167 74.9339 173.111 71.349 171C67.7641 168.889 65.0045 165.81 63.0701 161.763C53.5253 162.907 45.1356 159.884 37.9011 152.693C30.6666 145.502 27.4451 137.09 28.2368 127.458C24.2785 125.304 21.2213 122.148 19.0654 117.992C16.9107 113.836 15.8334 109.647 15.8334 105.424C15.8334 96.8479 19.1208 90.3054 25.6956 85.7969C32.2717 81.2883 39.6276 80.7936 47.7633 84.3125L59.7709 89.1951C62.1459 84.5771 65.4887 80.9374 69.7993 78.2761C74.1086 75.6147 78.8144 74.1521 83.9167 73.8882V57.1326H94.341V74.9451C99.5739 76.1326 104.082 78.7821 107.865 82.8935C111.647 87.0062 114.22 91.3933 115.583 96.0549H133.263V106.612H116.508C116.155 111.713 114.693 116.419 112.12 120.729C109.547 125.04 105.951 128.383 101.333 130.758L106.216 143.424ZM59.375 148.833C59.1111 145.271 59.2978 141.675 59.9351 138.047C60.5737 134.418 61.5303 130.889 62.8049 127.458C59.4192 129.174 55.8897 130.262 52.2164 130.724C48.5444 131.186 44.8612 131.197 41.1667 130.758C41.3422 135.376 43.2884 139.542 47.0052 143.258C50.7221 146.975 54.8454 148.833 59.375 148.833ZM44.7292 117.826C49.6547 117.826 54.6138 116.704 59.6066 114.461C64.5981 112.218 68.6111 110.129 71.6459 108.195L44.9924 97.2424C41.5183 95.7475 37.9888 95.8689 34.4039 97.6066C30.8203 99.343 29.0285 101.949 29.0285 105.424C29.0285 108.855 30.8757 111.779 34.5701 114.198C38.2646 116.616 41.6509 117.826 44.7292 117.826ZM83.125 160.972C86.9514 160.972 90.0191 159.685 92.3282 157.112C94.6372 154.539 95.132 151.604 93.8125 148.305L82.3334 118.883C79.9148 122.841 77.683 126.953 75.6379 131.219C73.5927 135.485 72.5701 140.388 72.5701 145.93C72.5701 149.141 73.4608 152.451 75.242 155.859C77.0233 159.268 79.6509 160.972 83.125 160.972ZM96.0549 118.354C98.7822 116.595 100.674 114.429 101.729 111.857C102.785 109.284 103.313 106.546 103.313 103.643C103.313 99.1569 101.729 95.3081 98.5625 92.0966C95.3959 88.8864 91.5912 87.2813 87.1487 87.2813C84.2459 87.2813 81.4533 87.8968 78.7709 89.1278C76.0884 90.3602 74.0215 92.3176 72.5701 95L89.1951 101.862L96.0549 118.354Z" fill="#FFB6C1"/>
</svg>
