<svg width="45" height="39" viewBox="0 0 45 39" fill="none" xmlns="http://www.w3.org/2000/svg">
<path d="M22.5 14.625C23.0312 14.625 23.4766 14.4693 23.8359 14.1578C24.1953 13.8464 24.375 13.4604 24.375 13C24.375 12.5396 24.1953 12.1536 23.8359 11.8422C23.4766 11.5307 23.0312 11.375 22.5 11.375C21.9688 11.375 21.5234 11.5307 21.1641 11.8422C20.8047 12.1536 20.625 12.5396 20.625 13C20.625 13.4604 20.8047 13.8464 21.1641 14.1578C21.5234 14.4693 21.9688 14.625 22.5 14.625ZM22.5 24.375C21.2812 24.375 20.1797 24.0839 19.1953 23.5016C18.2109 22.9193 17.5 22.1542 17.0625 21.2062C16.9062 21.2062 16.7656 21.213 16.6406 21.2266C16.5156 21.2401 16.375 21.2469 16.2188 21.2469C14.5938 21.2469 13.2031 20.7458 12.0469 19.7437C10.8906 18.7417 10.3125 17.5365 10.3125 16.1281C10.3125 15.5594 10.4219 15.0109 10.6406 14.4828C10.8594 13.9547 11.1875 13.4604 11.625 13C11.2188 12.5396 10.9062 12.0453 10.6875 11.5172C10.4688 10.9891 10.3594 10.4406 10.3594 9.87187C10.3594 8.46354 10.9297 7.25833 12.0703 6.25625C13.2109 5.25417 14.5938 4.75312 16.2188 4.75312C16.375 4.75312 16.5156 4.7599 16.6406 4.77344C16.7656 4.78698 16.9062 4.79375 17.0625 4.79375C17.5 3.84583 18.2109 3.08073 19.1953 2.49844C20.1797 1.91615 21.2812 1.625 22.5 1.625C23.7188 1.625 24.8203 1.91615 25.8047 2.49844C26.7891 3.08073 27.5 3.84583 27.9375 4.79375C28.0938 4.79375 28.2344 4.78698 28.3594 4.77344C28.4844 4.7599 28.625 4.75312 28.7812 4.75312C30.4062 4.75312 31.7891 5.25417 32.9297 6.25625C34.0703 7.25833 34.6406 8.46354 34.6406 9.87187C34.6406 10.4406 34.5391 10.9891 34.3359 11.5172C34.1328 12.0453 33.8125 12.5396 33.375 13C33.7812 13.4604 34.0938 13.9547 34.3125 14.4828C34.5312 15.0109 34.6406 15.5594 34.6406 16.1281C34.6406 17.5365 34.0703 18.7417 32.9297 19.7437C31.7891 20.7458 30.4062 21.2469 28.7812 21.2469C28.625 21.2469 28.4844 21.2401 28.3594 21.2266C28.2344 21.213 28.0938 21.2062 27.9375 21.2062C27.5 22.1542 26.7891 22.9193 25.8047 23.5016C24.8203 24.0839 23.7188 24.375 22.5 24.375ZM22.5 35.75C22.5 33.7458 22.9453 31.8568 23.8359 30.0828C24.7266 28.3089 25.9375 26.7583 27.4688 25.4312C29 24.1042 30.7891 23.0547 32.8359 22.2828C34.8828 21.5109 37.0625 21.125 39.375 21.125C39.375 23.1292 38.9297 25.0182 38.0391 26.7922C37.1484 28.5661 35.9375 30.1167 34.4062 31.4437C32.875 32.7708 31.0859 33.8203 29.0391 34.5922C26.9922 35.3641 24.8125 35.75 22.5 35.75ZM27.0938 31.7687C28.875 31.2 30.4375 30.3333 31.7812 29.1687C33.125 28.0042 34.125 26.65 34.7812 25.1062C33 25.675 31.4375 26.5417 30.0938 27.7062C28.75 28.8708 27.75 30.225 27.0938 31.7687ZM22.5 35.75C22.5 33.7458 22.0547 31.8568 21.1641 30.0828C20.2734 28.3089 19.0625 26.7583 17.5312 25.4312C16 24.1042 14.2109 23.0547 12.1641 22.2828C10.1172 21.5109 7.9375 21.125 5.625 21.125C5.625 23.1292 6.07031 25.0182 6.96094 26.7922C7.85156 28.5661 9.0625 30.1167 10.5938 31.4437C12.125 32.7708 13.9141 33.8203 15.9609 34.5922C18.0078 35.3641 20.1875 35.75 22.5 35.75ZM17.9062 31.7687C16.125 31.2 14.5625 30.3333 13.2188 29.1687C11.875 28.0042 10.875 26.65 10.2188 25.1062C12 25.675 13.5625 26.5417 14.9062 27.7062C16.25 28.8708 17.25 30.225 17.9062 31.7687ZM28.7812 17.9969C29.375 17.9969 29.8828 17.8141 30.3047 17.4484C30.7266 17.0828 30.9375 16.6427 30.9375 16.1281C30.9375 15.749 30.8203 15.4172 30.5859 15.1328C30.3516 14.8484 30.0469 14.625 29.6719 14.4625L28.0312 13.7719C27.9688 14.0698 27.875 14.3609 27.75 14.6453C27.625 14.9297 27.4844 15.1937 27.3281 15.4375C27.1719 15.6812 26.9844 15.9115 26.7656 16.1281C26.5469 16.3448 26.3125 16.5479 26.0625 16.7375L27.5625 17.6719C27.7188 17.7802 27.8984 17.8615 28.1016 17.9156C28.3047 17.9698 28.5312 17.9969 28.7812 17.9969ZM28.0312 12.2281L29.6719 11.5375C30.0469 11.375 30.3438 11.1448 30.5625 10.8469C30.7812 10.549 30.8906 10.224 30.8906 9.87187C30.8906 9.35729 30.6875 8.91719 30.2812 8.55156C29.875 8.18594 29.375 8.00312 28.7812 8.00312C28.5312 8.00312 28.3125 8.03021 28.125 8.08437C27.9375 8.13854 27.75 8.21979 27.5625 8.32812L26.0156 9.2625C26.2656 9.45208 26.5078 9.65521 26.7422 9.87187C26.9766 10.0885 27.1719 10.3187 27.3281 10.5625C27.4844 10.8062 27.625 11.0703 27.75 11.3547C27.875 11.6391 27.9688 11.9302 28.0312 12.2281ZM20.5781 8.45C20.8906 8.34167 21.2031 8.26042 21.5156 8.20625C21.8281 8.15208 22.1562 8.125 22.5 8.125C22.8438 8.125 23.1719 8.15208 23.4844 8.20625C23.7969 8.26042 24.1094 8.34167 24.4219 8.45L24.6562 6.6625C24.7188 6.175 24.5234 5.75521 24.0703 5.40312C23.6172 5.05104 23.0938 4.875 22.5 4.875C21.9062 4.875 21.3828 5.05104 20.9297 5.40312C20.4766 5.75521 20.2812 6.175 20.3438 6.6625L20.5781 8.45ZM22.5 21.125C23.0938 21.125 23.6172 20.949 24.0703 20.5969C24.5234 20.2448 24.7188 19.825 24.6562 19.3375L24.4219 17.55C24.1094 17.6583 23.7969 17.7396 23.4844 17.7937C23.1719 17.8479 22.8438 17.875 22.5 17.875C22.1562 17.875 21.8281 17.8479 21.5156 17.7937C21.2031 17.7396 20.8906 17.6583 20.5781 17.55L20.3438 19.3375C20.2812 19.825 20.4766 20.2448 20.9297 20.5969C21.3828 20.949 21.9062 21.125 22.5 21.125ZM16.9688 12.2281C17.0312 11.9302 17.125 11.6391 17.25 11.3547C17.375 11.0703 17.5156 10.8062 17.6719 10.5625C17.8281 10.3187 18.0156 10.0885 18.2344 9.87187C18.4531 9.65521 18.6875 9.45208 18.9375 9.2625L17.4375 8.32812C17.2812 8.21979 17.1016 8.13854 16.8984 8.08437C16.6953 8.03021 16.4688 8.00312 16.2188 8.00312C15.625 8.00312 15.1172 8.18594 14.6953 8.55156C14.2734 8.91719 14.0625 9.35729 14.0625 9.87187C14.0625 10.224 14.1797 10.549 14.4141 10.8469C14.6484 11.1448 14.9531 11.375 15.3281 11.5375L16.9688 12.2281ZM16.2188 17.9562C16.4688 17.9562 16.6875 17.9359 16.875 17.8953C17.0625 17.8547 17.25 17.7667 17.4375 17.6312L18.9844 16.7375C18.7344 16.5479 18.4922 16.3448 18.2578 16.1281C18.0234 15.9115 17.8281 15.6812 17.6719 15.4375C17.5156 15.1937 17.375 14.9297 17.25 14.6453C17.125 14.3609 17.0312 14.0698 16.9688 13.7719L15.3281 14.4625C14.9531 14.625 14.6562 14.8552 14.4375 15.1531C14.2188 15.451 14.1094 15.776 14.1094 16.1281C14.1406 16.6427 14.3516 17.076 14.7422 17.4281C15.1328 17.7802 15.625 17.9562 16.2188 17.9562Z" fill="#FFB6C1"/>
</svg>
